<?xml version="1.0" encoding="UTF-8" standalone="no"?>
<svg
   id="Layer_1"
   enable-background="new 0 0 512 512"
   height="512"
   viewBox="0 0 512 512"
   width="512"
   version="1.1"
   sodipodi:docname="cloud.svg"
   inkscape:version="1.1.1 (3bf5ae0d25, 2021-09-20)"
   xmlns:inkscape="http://www.inkscape.org/namespaces/inkscape"
   xmlns:sodipodi="http://sodipodi.sourceforge.net/DTD/sodipodi-0.dtd"
   xmlns="http://www.w3.org/2000/svg"
   xmlns:svg="http://www.w3.org/2000/svg">
  <defs
     id="defs15236" />
  <sodipodi:namedview
     id="namedview15234"
     pagecolor="#ffffff"
     bordercolor="#666666"
     borderopacity="1.0"
     inkscape:pageshadow="2"
     inkscape:pageopacity="0.0"
     inkscape:pagecheckerboard="0"
     showgrid="false"
     inkscape:zoom="0.8125"
     inkscape:cx="-129.84615"
     inkscape:cy="308.30769"
     inkscape:window-width="1920"
     inkscape:window-height="1017"
     inkscape:window-x="2040"
     inkscape:window-y="-8"
     inkscape:window-maximized="1"
     inkscape:current-layer="Layer_1" />
  <g
     id="g15726"
     transform="translate(0,88.229)">
    <path
       d="M 303.38,12.414 C 290.738,9.208 277.504,7.5 263.878,7.5 194.102,7.5 134.752,52.096 112.745,114.335 v 0.007 C 55.395,115.102 7.5,161.952 7.5,221.195 c 0,59.01 47.837,106.847 106.847,106.847 h 227.356 z"
       fill="#d4d4d5"
       id="path15205" />
    <path
       d="M 424.126,167.767 C 424.122,92.72 372.671,29.988 303.38,12.414 233.993,30.031 182.661,92.905 182.661,167.773 c 0,88.107 71.092,159.6 159.042,160.269 h 82.662 c 44.258,0 80.135,-35.878 80.135,-80.136 0,-44.837 -36.644,-80.373 -80.374,-80.139 z"
       fill="#efedee"
       id="path15207" />
    <ellipse
       cx="197.33099"
       cy="201.80499"
       fill="#ff8e9e"
       rx="29.212"
       ry="23.263"
       transform="matrix(1,0.003,-0.003,1,0.633,-0.617)"
       id="ellipse15209" />
    <ellipse
       cx="355.66901"
       cy="202.30099"
       fill="#ff8e9e"
       rx="29.212"
       ry="23.263"
       transform="matrix(-1,-0.003,0.003,-1,710.703,405.716)"
       id="ellipse15211" />
    <path
       d="M 431.472,160.537 C 427.668,71.371 353.947,0 263.877,0 194.618,0 132.4,42.802 107.456,107.029 48.539,110.467 0,159.398 0,221.195 c 0,45.752 27.16,87 69.193,105.084 3.805,1.638 8.216,-0.12 9.854,-3.926 1.637,-3.805 -0.121,-8.216 -3.926,-9.854 C 38.599,296.787 15,260.948 15,221.195 15,156.552 76.757,108.1 140.336,125.279 c 0.655,0.177 1.313,0.262 1.961,0.262 3.305,0 6.333,-2.202 7.236,-5.545 1.081,-3.999 -1.285,-8.116 -5.284,-9.197 -6.744,-1.822 -13.664,-3.005 -20.661,-3.566 C 147.577,51.665 202.707,15 263.877,15 c 81.832,0 148.836,64.699 152.576,145.639 -1.624,0.145 -3.244,0.321 -4.846,0.555 -4.099,0.598 -6.937,4.406 -6.338,8.504 0.599,4.107 4.415,6.937 8.504,6.338 44.419,-6.481 83.227,28.018 83.227,71.87 0,40.051 -32.584,72.636 -72.636,72.636 H 114.348 c -4.153,0 -8.331,-0.259 -12.417,-0.768 -4.112,-0.506 -7.858,2.405 -8.37,6.516 -0.512,4.11 2.405,7.857 6.516,8.369 4.698,0.585 9.499,0.882 14.27,0.883 h 310.017 c 48.322,0 87.636,-39.313 87.636,-87.636 0,-45.992 -35.531,-83.823 -80.528,-87.369 z"
       id="path15219" />
    <path
       d="m 219.5,177.042 v -10 c 0,-4.142 -3.358,-7.5 -7.5,-7.5 -4.142,0 -7.5,3.358 -7.5,7.5 v 10 c 0,4.142 3.358,7.5 7.5,7.5 4.142,0 7.5,-3.358 7.5,-7.5 z"
       id="path15221" />
    <path
       d="m 347.5,177.042 v -10 c 0,-4.142 -3.358,-7.5 -7.5,-7.5 -4.142,0 -7.5,3.358 -7.5,7.5 v 10 c 0,4.142 3.358,7.5 7.5,7.5 4.142,0 7.5,-3.358 7.5,-7.5 z"
       id="path15223" />
    <path
       d="m 276.5,197.542 c 9.687,0 18.623,-5.599 22.766,-14.265 1.787,-3.737 0.206,-8.215 -3.531,-10.001 -3.737,-1.789 -8.215,-0.206 -10.001,3.531 -1.666,3.484 -5.291,5.735 -9.234,5.735 -3.943,0 -7.568,-2.251 -9.234,-5.735 -1.787,-3.737 -6.266,-5.317 -10.001,-3.531 -3.737,1.787 -5.318,6.265 -3.531,10.001 4.143,8.666 13.079,14.265 22.766,14.265 z"
       id="path15225" />
  </g>
</svg>
